<svg width="100" height="94" viewBox="0 0 100 94" fill="none" xmlns="http://www.w3.org/2000/svg">
<path d="M96.3677 28.7774C91.9471 24.4499 87.9454 18.4938 85.6653 12.7239C85.0139 11.0953 84.5486 9.14092 85.6188 7.79149C86.8286 6.25594 89.3879 6.58166 90.7838 7.93109C92.1798 9.28052 92.6916 11.2814 93.157 13.1892C93.2035 10.8161 93.5757 8.16375 95.5301 6.81433C96.135 6.39554 96.8795 6.11635 97.531 6.34901C98.2755 6.58167 98.7873 7.27964 99.1131 8.02415C100.09 10.1646 100.09 12.5843 99.9041 14.9109C99.5318 19.5641 98.2289 24.543 96.3677 28.7774Z" fill="#FFD400"/>
<path d="M33.0842 63.0249C32.2001 63.0249 31.316 62.9784 30.4784 62.9318C25.4995 62.5596 21.4978 61.4428 18.2405 59.5815C16.3327 58.5113 13.9131 56.6035 12.9824 53.7651C12.4706 52.2295 12.424 49.9494 13.4943 48.5069C13.8665 47.9486 14.3784 47.5298 15.0298 47.2971C13.122 46.6457 10.8885 45.5754 9.49252 44.0864C7.7243 42.1786 7.11939 39.4332 8.09656 37.4323C8.65494 36.3156 9.67865 35.4315 10.9815 35.0127C11.3538 34.8731 11.7726 34.78 12.1914 34.78C10.5627 33.8494 8.84107 32.5465 7.58471 30.6852C5.86303 28.0794 5.49077 24.7757 6.7006 22.2164C8.00349 19.3779 11.3073 17.7493 14.0992 18.5404C15.7278 19.0057 16.9842 20.1225 18.194 21.1927L18.2871 21.2858C20.381 23.147 22.7076 25.0083 25.3134 26.1716C33.0842 29.708 41.6461 30.2664 48.7655 27.7072C50.999 26.9161 54.582 25.1944 58.0719 23.5193C61.8875 21.7045 65.7962 19.7967 68.2624 18.9592C72.9621 17.3771 77.5688 16.0276 82.5011 17.2375C84.9673 17.8424 88.085 19.7037 88.6899 22.9609C89.1087 25.241 88.2246 27.9864 87.2474 29.8476C83.1526 37.665 74.4046 46.2734 63.8418 52.8344C53.1395 59.4885 42.3441 63.0249 33.0842 63.0249ZM12.5636 35.3849C12.0983 35.3849 11.633 35.478 11.1211 35.6176C10.0044 35.9899 9.07373 36.7344 8.60841 37.7115C7.77083 39.5263 8.28269 41.9459 9.91131 43.6676C11.4469 45.2962 14.2388 46.5526 16.3792 47.0645L16.3327 47.6694C15.309 47.7159 14.5645 48.1347 14.0061 48.8792C13.0755 50.1821 13.1685 52.183 13.5873 53.5789C14.4249 56.1847 16.7515 57.9995 18.5197 59.0232C21.6839 60.8379 25.5926 61.9081 30.4784 62.2804C40.1571 63.0249 51.8831 59.4885 63.4696 52.276C73.9393 45.7616 82.5942 37.2462 86.6425 29.5219C87.5266 27.8468 88.4107 25.1479 88.0384 23.054C87.5266 20.3086 84.8277 18.4473 82.315 17.8424C77.5688 16.6791 73.0086 17.982 68.4485 19.5175C66.0288 20.3551 62.1201 22.2164 58.3511 24.0311C54.7216 25.7994 51.2782 27.428 48.9981 28.2655L48.9051 27.9864L48.9981 28.2655C41.7392 30.8713 33.0377 30.313 25.0807 26.73C22.3819 25.5202 20.0553 23.6124 17.8683 21.7511L17.7752 21.658C16.6119 20.6343 15.3555 19.5641 13.9131 19.1453C11.4469 18.4473 8.42228 19.9363 7.25899 22.4956C6.18875 24.8222 6.51447 27.8933 8.09656 30.313C9.63211 32.6861 12.0052 34.1286 13.9596 34.9662C14.2388 35.0592 14.4714 35.1523 14.7041 35.2919L14.4249 35.8503C14.1922 35.7572 13.9596 35.6641 13.6804 35.5711C13.3081 35.4315 12.9359 35.3849 12.5636 35.3849Z" fill="#231F20"/>
<path d="M88.5503 23.1936L88.0384 22.8213L90.7373 19.2384L90.6908 18.8661V19.1918L85.7584 19.471L85.7118 18.8196L90.6442 18.5404C90.9234 18.5404 91.1561 18.68 91.2957 18.9126C91.4353 19.1453 91.3887 19.4245 91.2491 19.6571L88.5503 23.1936Z" fill="#231F20"/>
<path d="M83.3852 24.6826L82.7803 24.4499C82.9199 24.1707 83.013 23.7985 82.8734 23.5658C82.8269 23.5193 82.7803 23.4262 82.4546 23.4262C82.2685 23.4262 81.9893 23.5658 81.8032 23.7054L81.4309 23.1936C81.7101 23.0074 82.0824 22.8678 82.3616 22.8213C82.7803 22.7748 83.1526 22.9144 83.3387 23.1936C83.804 23.752 83.5248 24.4034 83.3852 24.6826Z" fill="#231F20"/>
<path d="M70.1236 24.2173C71.8453 18.4473 67.9366 12.4912 63.33 8.6756C55.3265 2.02154 44.438 -1.0961 34.1079 0.346386C33.4099 0.439449 32.7585 0.718639 32.2466 1.18396C30.8972 2.44032 31.5487 3.97588 32.3862 5.18571C34.3871 8.07069 37.3652 10.2112 40.7155 11.2349C37.5978 10.723 34.4802 10.4903 31.316 10.5369C29.9666 10.5369 28.7102 11.2349 28.0588 12.3982C26.6628 14.9109 29.4547 17.2375 31.9674 18.1681C33.8287 18.8661 35.7365 19.3779 37.6909 19.6571C34.6198 19.9829 31.0833 20.96 28.9894 23.2866C28.9894 23.2866 28.9429 23.3332 28.9429 23.3797C25.9183 26.8231 27.8261 31.9881 32.1536 33.4306C39.5056 35.9433 48.0675 35.8503 55.9779 34.3612C59.9797 33.6167 63.5161 32.3604 66.7268 29.615C67.797 28.5913 69.7514 25.8924 70.1236 24.2173Z" fill="#0E4E96"/>
<path d="M81.1517 38.5026C76.7777 32.6861 68.0297 32.593 63.5161 38.2699C58.6302 44.4121 55.7918 52.276 55.9314 60.1399C55.9779 61.5824 56.071 63.0714 56.7224 64.3743C57.3739 65.6772 58.6302 66.7475 60.0727 66.7475C61.2826 66.794 62.4459 66.096 63.3765 65.305C65.8892 63.2576 67.5644 60.1865 68.7277 57.3945C68.1228 59.4885 67.5178 61.1636 67.704 63.0714C67.797 64.0486 67.9366 64.8862 68.495 65.7238C69.3791 66.9801 71.1939 67.1197 72.2176 66.003C74.4511 63.6764 75.0095 60.3261 75.056 57.0223C75.3352 60.8844 76.3589 65.1188 79.337 67.7712C79.8488 68.2365 80.5003 68.7018 81.1982 68.7018C82.4081 68.7483 83.2922 67.585 83.8506 66.5148C86.9217 60.7914 87.7127 53.9047 85.991 47.6694C85.2 44.7844 83.3852 41.4806 81.1517 38.5026Z" fill="#ED1C24"/>
<path d="M13.6339 68.7483L14.5645 72.4244L17.2168 69.679L19.4969 70.2839L17.5891 77.6359L15.7278 77.1241L16.9376 72.4244L14.2388 75.1698L13.4943 74.9836L12.4706 71.2611L11.2607 75.9608L9.39945 75.4489L11.3073 68.0969L13.6339 68.7483Z" fill="#010101"/>
<path d="M24.1966 71.0749C24.755 71.168 25.2668 71.3541 25.6856 71.6333C26.1044 71.9125 26.4767 72.2382 26.7559 72.6105C27.0351 72.9828 27.2212 73.4481 27.3142 73.9599C27.4073 74.4718 27.4073 74.9836 27.3142 75.5885C27.2212 76.1469 27.0351 76.6588 26.7559 77.1241C26.4767 77.5894 26.151 77.9151 25.7322 78.1943C25.3134 78.4735 24.8946 78.6596 24.3827 78.7527C23.8709 78.8458 23.359 78.8458 22.7541 78.7527C22.1492 78.6596 21.6374 78.4735 21.2186 78.1943C20.7998 77.9151 20.4275 77.5894 20.1483 77.2172C19.8691 76.7984 19.683 76.3796 19.59 75.8677C19.4969 75.3559 19.4969 74.844 19.59 74.2391C19.683 73.6807 19.8691 73.1689 20.1483 72.7036C20.4275 72.2848 20.7532 71.9125 21.172 71.6333C21.5908 71.3541 22.0096 71.168 22.5215 71.0749C23.1264 70.9819 23.6382 70.9819 24.1966 71.0749ZM21.6374 74.5648C21.5908 74.7975 21.5908 75.0767 21.5908 75.3093C21.6374 75.5885 21.6839 75.8212 21.8235 76.0073C21.9631 76.24 22.1027 76.4261 22.3353 76.5657C22.568 76.7053 22.8472 76.8449 23.1729 76.8914C23.4986 76.938 23.7778 76.938 24.057 76.8449C24.2897 76.7518 24.5223 76.6588 24.7085 76.4726C24.8946 76.2865 25.0342 76.1004 25.1273 75.8677C25.2203 75.6351 25.3134 75.4024 25.3599 75.1698C25.4064 74.9371 25.4064 74.7044 25.4064 74.4718C25.4064 74.2391 25.3134 73.9599 25.2203 73.7738C25.1272 73.5411 24.9411 73.355 24.755 73.1689C24.5223 72.9827 24.2897 72.8897 23.9174 72.7966C23.5917 72.7501 23.266 72.7501 23.0333 72.7966C22.7541 72.8897 22.5215 72.9827 22.3353 73.1689C22.1492 73.3085 22.0096 73.5411 21.87 73.7738C21.7304 74.0995 21.6839 74.3322 21.6374 74.5648Z" fill="#010101"/>
<path d="M30.1527 77.9617L33.7822 78.3805L33.5961 80.1487L28.0588 79.4972L28.9429 71.959L30.8972 72.1917L30.1527 77.9617Z" fill="#010101"/>
<path d="M34.9455 80.2883L35.2247 72.7036L38.2027 72.8432C38.8076 72.8897 39.3195 72.9827 39.8313 73.1689C40.2967 73.355 40.7154 73.5877 41.0412 73.9134C41.3669 74.2391 41.5996 74.6579 41.7857 75.1232C41.9718 75.5885 42.0183 76.1469 41.9718 76.7984C41.9253 78.0547 41.553 79.0319 40.855 79.6368C40.1571 80.2417 39.1799 80.5209 37.9701 80.4744L34.9455 80.2883ZM38.0631 78.6131C38.4354 78.6131 38.7146 78.6131 38.9472 78.52C39.1799 78.427 39.4126 78.2874 39.5521 78.1478C39.6917 77.9617 39.8313 77.7755 39.8779 77.5429C39.9709 77.3102 40.0175 77.031 40.0175 76.7518C40.0175 76.4726 40.0175 76.1934 39.9709 75.9608C39.9244 75.7281 39.8313 75.4955 39.6917 75.3093C39.5522 75.1232 39.366 74.9836 39.0868 74.844C38.8542 74.751 38.5285 74.6579 38.1097 74.6579L37.1325 74.6114L36.9929 78.6131H38.0631Z" fill="#010101"/>
<path d="M46.5785 72.6105C47.1369 72.564 47.6952 72.6105 48.1606 72.7966C48.6259 72.9362 49.0912 73.1689 49.4169 73.4946C49.7892 73.8203 50.0684 74.1926 50.301 74.6579C50.5337 75.1232 50.6733 75.6351 50.6733 76.24C50.7198 76.7984 50.6733 77.3568 50.4871 77.8686C50.3476 78.3805 50.1149 78.7992 49.7892 79.1715C49.4634 79.5438 49.0912 79.823 48.6259 80.0556C48.1606 80.2883 47.6487 80.4279 47.0438 80.4279C46.4389 80.4744 45.927 80.4279 45.4152 80.2417C44.9033 80.0556 44.4845 79.8695 44.1588 79.5438C43.7866 79.218 43.5074 78.8458 43.2747 78.3805C43.042 77.9151 42.949 77.4033 42.9024 76.7984C42.8559 76.1935 42.9024 75.6816 43.0886 75.1698C43.2282 74.6579 43.5074 74.2391 43.7866 73.9134C44.1123 73.5411 44.4845 73.2619 44.9499 73.0293C45.4152 72.7966 46.0201 72.657 46.5785 72.6105ZM44.9033 76.6122C44.9033 76.8914 44.9964 77.1241 45.0429 77.3568C45.136 77.5894 45.2756 77.8221 45.4152 78.0082C45.6013 78.1943 45.7874 78.3339 46.0666 78.427C46.2993 78.5201 46.625 78.5666 46.9507 78.5666C47.2764 78.5666 47.5556 78.4735 47.7883 78.3339C48.021 78.1943 48.2071 78.0082 48.3467 77.8221C48.4863 77.6359 48.5793 77.4033 48.6259 77.1241C48.6724 76.8914 48.7189 76.6588 48.6724 76.4261C48.6724 76.1935 48.6259 75.9608 48.5328 75.7281C48.4397 75.4955 48.3467 75.2628 48.1606 75.0767C48.021 74.8906 47.7883 74.751 47.5556 74.6114C47.323 74.4718 46.9973 74.4252 46.6715 74.4718C46.3458 74.4718 46.0201 74.5648 45.7874 74.7044C45.5548 74.844 45.3686 75.0302 45.229 75.2163C45.0894 75.4024 44.9964 75.6351 44.9499 75.9143C44.9033 76.1469 44.9033 76.3796 44.9033 76.6122Z" fill="#010101"/>
<path d="M55.9314 71.4472L57.9788 71.0749L56.7224 79.0784L54.3028 79.5438L50.208 72.564L52.3019 72.1452L55.2799 77.636L55.9314 71.4472Z" fill="#010101"/>
<path d="M61.4687 77.8221L59.5144 78.52L59.9331 70.3304L61.7944 69.679L67.1456 75.8677L65.1447 76.5657L64.4467 75.6816L61.5152 76.7053L61.4687 77.8221ZM63.2834 74.2391L61.5618 72.0521L61.5152 74.844L63.2834 74.2391Z" fill="#010101"/>
<path d="M5.39771 79.5438C5.8165 79.6834 6.18875 79.8695 6.51447 80.0556C6.8402 80.2417 7.07286 80.5209 7.25899 80.8001C7.44511 81.0793 7.53818 81.405 7.58471 81.7773C7.63124 82.1495 7.53818 82.5683 7.39858 83.0802C7.21245 83.592 6.97979 83.9643 6.7006 84.2435C6.37488 84.5227 6.04915 84.7553 5.6769 84.8484C5.35118 84.9415 5.02545 84.988 4.69973 84.9415C4.32747 84.8949 4.00175 84.8484 3.62949 84.7088L2.51273 84.3365L1.86128 86.3839L0 85.779L2.37313 78.5666L5.39771 79.5438ZM4.14134 83.0802C4.5136 83.2198 4.79279 83.2198 5.02545 83.0802C5.25811 82.9871 5.44424 82.801 5.5373 82.4753C5.63037 82.1495 5.63037 81.9169 5.49077 81.7308C5.35117 81.5446 5.07198 81.3585 4.69973 81.2189L3.58296 80.8467L2.97805 82.6614L4.14134 83.0802Z" fill="#010101"/>
<path d="M14.7041 82.2426L14.2388 83.9643L10.5628 82.9406L10.237 84.0573L13.2616 84.8949L12.7963 86.5701L9.77171 85.7325L9.49252 86.8027L13.1685 87.8264L12.7032 89.5481L7.16592 88.0126L9.16679 80.6605L14.7041 82.2426Z" fill="#010101"/>
<path d="M17.3564 82.8941L19.59 87.8264L20.5206 83.592L22.4284 84.0108L20.8463 91.4559L19.1246 91.0837L16.8446 86.1978L15.9605 90.3857L14.0526 89.9669L15.6347 82.5218L17.3564 82.8941Z" fill="#010101"/>
<path d="M22.7541 85.8721L23.0333 84.1039L29.4082 85.0811L29.129 86.8493L26.8955 86.5235L26.0114 92.247L24.1035 91.9678L24.9877 86.2444L22.7541 85.8721Z" fill="#010101"/>
<path d="M33.2703 85.4068C33.5961 85.4533 33.9683 85.4998 34.294 85.5929C34.6663 85.686 34.9455 85.8256 35.2247 86.0582C35.5039 86.2444 35.7365 86.5235 35.8761 86.8958C36.0623 87.2215 36.1088 87.6868 36.0623 88.1987C36.0157 88.7105 35.8296 89.1293 35.5969 89.5016C35.3177 89.8738 34.9455 90.153 34.3871 90.2926L35.8761 93.3172L33.6891 93.1311L32.4793 90.4322L31.5487 90.3392L31.316 92.8984L29.3617 92.7123L30.0596 85.1276L33.2703 85.4068ZM32.9912 88.7105C33.3634 88.7571 33.6426 88.7105 33.8287 88.5709C34.0148 88.4314 34.1545 88.2452 34.1545 88.0126C34.1545 87.873 34.1544 87.7334 34.1079 87.6403C34.0614 87.5472 33.9683 87.4542 33.8753 87.4076C33.7822 87.3611 33.6426 87.3146 33.5495 87.2681C33.4099 87.2215 33.2703 87.2215 33.1307 87.2215L31.8279 87.0819L31.6883 88.6175L32.9912 88.7105Z" fill="#010101"/>
<path d="M40.4828 93.5033C39.366 93.5033 38.5285 93.1776 37.9701 92.5727C37.4117 91.9678 37.179 91.0837 37.179 89.8738L37.2256 85.779L39.1799 85.8256L39.1334 90.06C39.1334 90.2461 39.1334 90.4788 39.1799 90.6649C39.2264 90.851 39.273 91.0372 39.4126 91.2233C39.5056 91.3629 39.6452 91.5025 39.8313 91.5955C40.0175 91.6886 40.2501 91.7351 40.5293 91.7351C40.8085 91.7351 41.0412 91.6886 41.2273 91.5955C41.4134 91.5025 41.553 91.3629 41.6461 91.2233C41.7392 91.0837 41.8322 90.8976 41.8787 90.7114C41.9253 90.5253 41.9253 90.3392 41.9253 90.1065L41.9718 85.8721L43.9262 85.9186L43.8796 90.0134C43.8796 91.1767 43.6004 92.0608 43.042 92.6658C42.4837 93.2241 41.5996 93.5033 40.4828 93.5033Z" fill="#010101"/>
<path d="M51.3247 85.2672C51.7435 85.2206 52.1623 85.2206 52.5346 85.2672C52.9068 85.3137 53.2325 85.4068 53.5583 85.5929C53.8375 85.779 54.0701 86.0117 54.2562 86.3374C54.4424 86.6631 54.582 87.0819 54.6285 87.5938C54.675 88.1056 54.6285 88.5709 54.4889 88.9432C54.3493 89.3155 54.1167 89.6412 53.7909 89.9204C53.5583 90.153 53.2791 90.2926 52.9068 90.4322C52.5811 90.5718 52.2088 90.6184 51.8366 90.6649L50.6733 90.8045L50.9059 92.9449L48.9516 93.1776L48.114 85.6394L51.3247 85.2672ZM51.6505 88.9897C52.0227 88.9432 52.3019 88.8501 52.488 88.6175C52.6742 88.4314 52.7672 88.1522 52.7207 87.873C52.6742 87.5472 52.5811 87.3146 52.395 87.175C52.2088 87.0354 51.8831 86.9889 51.4643 87.0354L50.301 87.175L50.5337 89.0828L51.6505 88.9897Z" fill="#010101"/>
<path d="M57.3274 92.0608L55.2799 92.5262L56.6759 84.4296L58.6302 84.0108L63.1438 90.8045L61.0964 91.2233L60.4915 90.2461L57.4669 90.8975L57.3274 92.0608ZM59.5609 88.7105L58.1184 86.3374L57.7461 89.0828L59.5609 88.7105Z" fill="#010101"/>
<path d="M64.7725 86.2909C64.8655 86.5236 64.9586 86.7562 65.0982 86.9423C65.2378 87.175 65.4239 87.3146 65.61 87.4542C65.7962 87.5938 66.0288 87.6869 66.308 87.7334C66.5872 87.7799 66.8664 87.7334 67.1456 87.6403C67.5644 87.5007 67.8436 87.3146 68.0297 87.0354C68.2158 86.7562 68.2624 86.477 68.2624 86.1048L70.0306 85.4998C70.1702 85.9652 70.1702 86.384 70.1236 86.8027C70.0771 87.2215 69.9375 87.5938 69.7049 87.9195C69.4722 88.2452 69.2395 88.5244 68.8673 88.8036C68.5416 89.0363 68.1693 89.2224 67.7505 89.4085C67.1921 89.5947 66.6803 89.6877 66.1684 89.6877C65.6566 89.6877 65.1913 89.5481 64.7725 89.362C64.3537 89.1293 63.9814 88.8502 63.6557 88.4314C63.33 88.0126 63.0508 87.5473 62.8647 86.9889C62.6785 86.4305 62.5855 85.8721 62.5855 85.3603C62.5855 84.8484 62.6785 84.3831 62.9112 83.9643C63.0973 83.5455 63.423 83.1733 63.7953 82.8475C64.1676 82.5218 64.6329 82.2426 65.1447 82.0565C65.5635 81.9169 65.9823 81.8238 66.3546 81.8238C66.7733 81.8238 67.1456 81.8704 67.5179 82.0099C67.8901 82.1495 68.2158 82.3357 68.495 82.6149C68.7742 82.8941 69.0534 83.2663 69.2395 83.7316L67.5179 84.3365C67.3317 84.0574 67.0991 83.8247 66.7733 83.7316C66.4941 83.6386 66.1219 83.6386 65.7496 83.7782C65.4239 83.8712 65.1913 84.0574 65.0051 84.2435C64.819 84.4296 64.7259 84.6157 64.6329 84.8484C64.5398 85.0811 64.5398 85.3137 64.5863 85.5464C64.6329 85.8256 64.6794 86.0582 64.7725 86.2909Z" fill="#010101"/>
<path d="M74.1719 78.0547L74.9629 79.6834L71.5661 81.405L72.078 82.4287L74.8699 81.0328L75.6609 82.5683L72.869 83.9643L73.3809 84.988L76.7777 83.2663L77.5687 84.8484L72.4502 87.4542L69.0069 80.6605L74.1719 78.0547Z" fill="#010101"/>
</svg>
